# xmcd CD database file
#
# Track frame offsets:
#	150
#	26125
#	41400
#	61889
#	97473
#	110005
#	138601
#	165286
#	191042
#	198801
#
# Disc length: 3145 seconds
#
# Revision: 0
# Processed by: cddbd v1.5PL3 Copyright (c) Steve Scherf et al.
# Submitted via: CDex 1.51
#
DISCID=8d0c470a
DTITLE=Positive Rhythmic Force - Positive Rhythmic Force
DYEAR=1996
DGENRE=Jazz
TTITLE0=Yarfejj
TTITLE1=Saudade
TTITLE2=It Is
TTITLE3=Medicated Hum
TTITLE4=Old Folks
TTITLE5=Is This Love?
TTITLE6=One For James
TTITLE7=520 East 11th Street
TTITLE8=T-Time
TTITLE9=Secret Love
EXTD=YEAR: 1996
EXTT0=
EXTT1=
EXTT2=
EXTT3=
EXTT4=
EXTT5=
EXTT6=
EXTT7=
EXTT8=
EXTT9=
PLAYORDER=
